Quote:
General
Complete name : Four Friends (2010) 1CD - PDvDRip.MP4
Format : MPEG-4
Format profile : Base Media
Codec ID : isom
File size : 683 MiB
Duration : 2h 29mn
Overall bit rate : 640 Kbps
Encoded date : UTC 2011-01-15 02:18:20
Tagged date : UTC 2011-01-15 02:18:20

Video
ID : 1
Format : AVC
Format/Info : Advanced Video Codec
Format profile : High@L2.1
Format settings, CABAC : Yes
Format settings, ReFrames : 4 frames
Format settings, GOP : M=1, N=12
Codec ID : avc1
Codec ID/Info : Advanced Video Coding
Duration : 2h 29mn
Bit rate mode : Variable
Bit rate : 573 Kbps
Maximum bit rate : 2 580 Kbps
Width : 640 pixels
Height : 240 pixels
Display aspect ratio : 2.667
Frame rate mode : Constant
Frame rate : 25.000 fps
Color space : YUV
Chroma subsampling : 4:2:0
Bit depth : 8 bits
Scan type : Progressive
Bits/(Pixel*Frame) : 0.149
Stream size : 611 MiB (89%)
Title : Imported with GPAC 0.4.6-DEV (internal rev. 5)
Writing library : x264 core 98 r1649 c54c47d
Encoding settings : cabac=1 / ref=3 / deblock=1:-1:-1 / analyse=0x3:0x113 / me=hex / subme=6 / psy=1 / psy_rd=1.00:0.15 / mixed_ref=1 / me_range=16 / chroma_me=1 / trellis=1 / 8x8dct=1 / cqm=0 / deadzone=21,11 / fast_pskip=1 / chroma_qp_offset=-3 / threads=6 / sliced_threads=0 / nr=0 / decimate=1 / interlaced=0 / constrained_intra=0 / bframes=3 / b_pyramid=2 / b_adapt=1 / b_bias=0 / direct=1 / weightb=1 / weightp=2 / keyint=250 / keyint_min=25 / scenecut=40 / intra_refresh=0 / rc_lookahead=30 / rc=2pass / mbtree=1 / bitrate=573 / ratetol=1.0 / qcomp=0.60 / qpmin=10 / qpmax=51 / qpstep=4 / cplxblur=20.0 / qblur=0.5 / ip_ratio=1.40 / aq=1:1.00
Encoded date : UTC 2011-01-15 02:18:20
Tagged date : UTC 2011-01-15 02:20:04

Audio
ID : 2
Format : AAC
Format/Info : Advanced Audio Codec
Format profile : HE-AAC / LC
Codec ID : 40
Duration : 2h 29mn
Bit rate mode : Variable
Bit rate : 64.0 Kbps
Maximum bit rate : 70.5 Kbps
Channel(s) : 2 channels
Channel positions : Front: L R
Sampling rate : 48.0 KHz / 24.0 KHz
Compression mode : Lossy
Stream size : 68.3 MiB (10%)
Encoded date : UTC 2011-01-15 02:19:55
Tagged date : UTC 2011-01-15 02:20:04



 
http://img140.imageshack.us/img140/5174/fourfriends20101cdpdvdr.jpg

 
http://img337.imageshack.us/img337/5174/fourfriends20101cdpdvdr.jpg

 
http://img545.imageshack.us/img545/5174/fourfriends20101cdpdvdr.jpg

 
http://img156.imageshack.us/img156/5174/fourfriends20101cdpdvdr.jpg